<?xml version="1.0" encoding="UTF-8"?>
<!DOCTYPE svg PUBLIC "-//W3C//DTD SVG 1.1//EN" "http://www.w3.org/Graphics/SVG/1.1/DTD/svg11.dtd">
<!-- Creator: CorelDRAW -->
<svg xmlns="http://www.w3.org/2000/svg" xml:space="preserve" width="4.7694mm" height="2.3504mm" version="1.1" style="shape-rendering:geometricPrecision; text-rendering:geometricPrecision; image-rendering:optimizeQuality; fill-rule:evenodd; clip-rule:evenodd"
viewBox="0 0 614.12 302.65"
 xmlns:xlink="http://www.w3.org/1999/xlink"
 xmlns:xodm="http://www.corel.com/coreldraw/odm/2003">
 <defs>
  <style type="text/css">
   <![CDATA[
    .str0 {stroke:#FEFEFE;stroke-width:25.75;stroke-miterlimit:22.9256}
    .fil1 {fill:#FEFEFE}
    .fil0 {fill:black;fill-rule:nonzero}
    .fil2 {fill:#ED3237;fill-rule:nonzero}
   ]]>
  </style>
 </defs>
 <g id="Camada_x0020_1">
  <metadata id="CorelCorpID_0Corel-Layer"/>
  <path class="fil0" d="M182.39 0l-80.19 0c-56.42,0 -102.2,45.78 -102.2,102.2 0,56.44 45.78,102.21 102.21,102.21l102.19 0c0.03,0 0.05,0 0.06,0 56.42,0 102.2,-45.78 102.2,-102.21 0,-11.6 -1.98,-23.13 -5.85,-34.06l-28.28 0c-2.95,0 -5.79,0.35 -8.52,1.06 5.59,10.1 8.54,21.45 8.54,33 0,37.62 -30.52,68.14 -68.13,68.14 0,0 -0.01,0 -0.01,0l-102.21 0.01c-37.61,-0.01 -68.13,-30.53 -68.13,-68.15 0,-37.61 30.52,-68.13 68.14,-68.13l52.28 0c7.43,-12.81 16.87,-24.32 27.94,-34.07l-0.04 0z"/>
  <path class="fil0" d="M272.54 0c-0.01,0 -0.04,0 -0.05,0 -56.42,0 -102.2,45.78 -102.2,102.2 0,11.6 1.98,23.14 5.85,34.07l37.39 0.01c-5.96,-10.37 -9.12,-22.13 -9.12,-34.08 0,-37.61 30.52,-68.13 68.13,-68.13l102.2 0c37.62,0 68.14,30.52 68.14,68.13 0,37.62 -30.52,68.14 -68.14,68.14l-52.29 0.01c-7.39,12.76 -16.86,24.3 -27.94,34.05l80.23 0.01c56.44,0 102.21,-45.78 102.21,-102.21 0,-56.42 -45.78,-102.2 -102.21,-102.2l-102.2 0z"/>
  <ellipse class="fil1 str0" cx="501.48" cy="196.1" rx="70.49" ry="68.21"/>
  <g id="_2509192932736">
   <path class="fil2" d="M503.7 302.65c60.97,-0.04 110.43,-49.48 110.43,-110.47 0,-60.98 -49.46,-110.43 -110.43,-110.43 -60.98,0 -110.45,49.45 -110.45,110.43 0,60.98 49.47,110.43 110.45,110.43l0 0.04zm-20.4 -153.18l20.4 20.42 20.37 -20.42c2.96,-2.99 6.99,-4.64 11.18,-4.64 8.72,0 15.8,7.06 15.8,15.79 0,4.2 -1.67,8.23 -4.64,11.19l-20.41 20.37 20.41 20.4c2.96,2.95 4.64,6.98 4.64,11.16 0,8.73 -7.08,15.8 -15.8,15.8 -4.18,0 -8.22,-1.66 -11.18,-4.62l-20.37 -20.42 -20.4 20.42c-2.96,2.96 -6.99,4.62 -11.16,4.62 -8.73,0 -15.81,-7.07 -15.81,-15.8 0,-4.18 1.67,-8.22 4.64,-11.16l20.41 -20.4 -20.41 -20.37c-2.96,-2.96 -4.64,-6.99 -4.64,-11.19 0,-8.73 7.08,-15.79 15.81,-15.79 4.17,0 8.2,1.65 11.16,4.62l0 0.01zm0 0l0 0 0 0z"/>
  </g>
 </g>
</svg>
